HIERARCHY
ROOT Hips
{
 OFFSET 0.000000 0.000000 0.000000
 CHANNELS 6 Xposition Yposition Zposition Yrotation Xrotation Zrotation
 JOINT Chest
 {
  OFFSET 0.000000 9.585900 0.002600
  CHANNELS 3 Yrotation Xrotation Zrotation
  JOINT Chest2
  {
   OFFSET 0.000000 9.601200 -0.005300
   CHANNELS 3 Yrotation Xrotation Zrotation
   JOINT Chest3
   {
    OFFSET 0.000000 9.561800 0.000000
    CHANNELS 3 Yrotation Xrotation Zrotation
    JOINT Chest4
    {
     OFFSET 0.000000 9.552100 0.000000
     CHANNELS 3 Yrotation Xrotation Zrotation
     JOINT Neck
     {
      OFFSET 0.000000 14.453000 0.000000
      CHANNELS 3 Yrotation Xrotation Zrotation
      JOINT Head
      {
       OFFSET 0.000000 8.936500 -0.011300
       CHANNELS 3 Yrotation Xrotation Zrotation
       End Site
       {
        OFFSET 0.000000 17.073600 -0.006000
       }
      }
     }
     JOINT RightCollar
     {
      OFFSET -2.921100 9.558500 0.000000
      CHANNELS 3 Yrotation Xrotation Zrotation
      JOINT RightShoulder
      {
       OFFSET -13.519700 0.000000 0.000000
       CHANNELS 3 Yrotation Xrotation Zrotation
       JOINT RightElbow
       {
        OFFSET 0.000000 -29.696600 0.000000
        CHANNELS 3 Yrotation Xrotation Zrotation
        JOINT RightWrist
        {
         OFFSET 0.000000 -24.004700 0.000000
         CHANNELS 3 Yrotation Xrotation Zrotation
         End Site
         {
          OFFSET 0.000000 -17.728500 0.000000
         }
        }
       }
      }
     }
     JOINT LeftCollar
     {
      OFFSET 2.921100 9.558500 0.000000
      CHANNELS 3 Yrotation Xrotation Zrotation
      JOINT LeftShoulder
      {
       OFFSET 13.519700 0.000000 0.000000
       CHANNELS 3 Yrotation Xrotation Zrotation
       JOINT LeftElbow
       {
        OFFSET 0.000000 -29.696600 0.000000
        CHANNELS 3 Yrotation Xrotation Zrotation
        JOINT LeftWrist
        {
         OFFSET 0.000000 -24.004700 0.000000
         CHANNELS 3 Yrotation Xrotation Zrotation
         End Site
         {
          OFFSET 0.000000 -17.728500 0.000000
         }
        }
       }
      }
     }
    }
   }
  }
 }
 JOINT RightHip
 {
  OFFSET -7.771700 -0.012900 -0.001300
  CHANNELS 3 Yrotation Xrotation Zrotation
  JOINT RightKnee
  {
   OFFSET 0.000000 -40.869800 0.001200
   CHANNELS 3 Yrotation Xrotation Zrotation
   JOINT RightAnkle
   {
    OFFSET 0.000000 -39.717900 0.002100
    CHANNELS 3 Yrotation Xrotation Zrotation
    JOINT RightToe
    {
     OFFSET 0.000000 -4.965400 11.033500
     CHANNELS 3 Yrotation Xrotation Zrotation
     End Site
     {
      OFFSET 0.000000 -1.423100 5.872300
     }
    }
   }
  }
 }
 JOINT LeftHip
 {
  OFFSET 7.771700 -0.012900 -0.001300
  CHANNELS 3 Yrotation Xrotation Zrotation
  JOINT LeftKnee
  {
   OFFSET 0.000000 -40.869800 0.001200
   CHANNELS 3 Yrotation Xrotation Zrotation
   JOINT LeftAnkle
   {
    OFFSET 0.000000 -39.717900 0.002100
    CHANNELS 3 Yrotation Xrotation Zrotation
    JOINT LeftToe
    {
     OFFSET 0.000000 -4.965400 11.033500
     CHANNELS 3 Yrotation Xrotation Zrotation
     End Site
     {
      OFFSET 0.000000 -1.423100 5.872300
     }
    }
   }
  }
 }
}
MOTION
Frames: 9
Frame Time: 0.008333
0.000000 85.388000 0.000000 0.000000 -5.767877 0.000000 0.000000 11.653817 0.000000 0.000000 -5.885947 0.000000 0.000000 -0.000000 0.000000 0.000000 -0.000000 0.000000 0.000000 12.528835 0.000000 0.000000 0.711642 0.000000 0.000000 -0.000000 0.000000 0.000000 0.000000 -90.000000 0.000000 -2.309062 0.000000 0.000000 2.309062 0.000000 0.000000 -0.000000 0.000000 0.000000 -0.000000 90.000000 0.000000 -2.309062 0.000000 0.000000 2.309062 0.000000 0.000000 8.520406 0.000000 0.000000 1.905762 0.000000 -0.000000 -4.658285 0.000000 0.000000 -0.000000 0.000000 0.000000 8.520406 0.000000 0.000000 1.905762 0.000000 -0.000000 -4.658285 0.000000 0.000000 -0.000000 0.000000
-131.993925 57.911069 110.144612 179.993731 -34.173259 -0.586410 2.361650 22.623728 2.871630 0.266082 3.237761 0.376240 0.542713 5.207278 0.606929 1.848176 19.078711 2.539928 -3.093940 12.413667 -1.746662 -5.166392 -12.747144 -2.043214 1.627869 -0.034571 -1.808818 2.610558 -13.147828 -9.608386 76.709178 -69.487819 -52.354868 15.278195 10.245781 -30.106321 -5.067066 -1.551486 -2.631155 3.645112 -7.787359 -6.283576 -35.039739 -58.953509 15.561688 -4.596684 -4.851492 29.488008 7.875744 -40.891616 -8.445981 -10.957437 66.656033 -12.156739 8.358689 25.428410 6.517787 -0.417418 -17.373865 3.587876 -6.930459 -38.347576 -2.766342 22.486489 62.620679 19.176159 -15.530959 8.497962 -1.475786 -0.047843 0.208467 0.024725
-132.002772 57.898971 110.156965 179.987090 -34.162661 -0.604690 2.285777 22.626130 2.858663 0.257344 3.243047 0.376446 0.454668 5.241916 0.615910 1.861667 19.069720 2.514581 -3.115004 12.349181 -1.797117 -5.186406 -12.867938 -2.128742 1.603322 -0.032821 -1.858353 2.570927 -12.717048 -9.404610 75.174058 -68.348603 -50.974602 15.670795 9.194874 -30.256827 -5.078301 -1.598138 -2.719484 3.335508 -7.956094 -6.648938 -37.749851 -57.036561 18.579155 -6.554864 -6.592615 32.203067 7.884253 -40.900029 -8.424579 -10.993111 66.625512 -12.196912 8.386112 25.437307 6.550421 -0.428018 -17.361447 3.585053 -6.897928 -38.389631 -2.798744 22.556838 62.621682 19.289224 -15.508749 8.543803 -1.464433 -0.064217 0.164744 0.007124
-132.011701 57.884657 110.168630 179.997123 -34.162292 -0.638633 2.192496 22.631946 2.843748 0.249255 3.246648 0.376242 0.414468 5.252750 0.616675 1.837189 19.076710 2.501331 -3.141571 12.303420 -1.843351 -5.218392 -12.953789 -2.204432 1.565266 -0.025788 -1.902118 2.558445 -12.325923 -9.242069 73.514184 -67.495045 -49.454134 16.037015 7.759019 -30.684608 -5.087388 -1.643794 -2.788722 2.984694 -8.139327 -7.048112 -39.773534 -56.134441 21.032193 -9.699874 -9.009205 35.151519 7.813880 -40.901660 -8.327955 -11.021550 66.596983 -12.284742 8.354280 25.421526 6.547050 -0.394995 -17.328978 3.598240 -6.782496 -38.438835 -2.932821 22.640681 62.630577 19.522776 -15.434449 8.607058 -1.436762 -0.136956 0.087202 -0.039574
-132.023578 57.867099 110.181041 -179.995879 -34.155365 -0.647149 2.087221 22.626278 2.794761 0.241931 3.247171 0.375787 0.402599 5.253537 0.615755 1.792429 19.080783 2.492460 -3.174377 12.279392 -1.885599 -5.263723 -12.999195 -2.270537 1.553074 -0.015605 -1.939356 2.488396 -11.972755 -9.118160 71.991657 -66.811829 -48.017353 16.465103 6.156548 -31.300516 -5.088314 -1.681951 -2.847629 2.617049 -8.324147 -7.480874 -41.169363 -55.835032 22.671869 -12.894122 -10.964528 37.808683 7.786054 -40.914917 -8.298534 -11.008198 66.584738 -12.308257 8.344002 25.413223 6.560312 -0.394098 -17.306270 3.602990 -6.640482 -38.515005 -3.129406 22.759388 62.653409 19.817925 -15.324431 8.686745 -1.403316 -0.245599 0.002266 -0.089769
-132.032560 57.846813 110.194569 -179.947188 -34.132682 -0.674335 1.942329 22.600934 2.732561 0.235530 3.243176 0.374806 0.392324 5.247514 0.614020 1.754265 19.073912 2.482940 -3.213364 12.280751 -1.922258 -5.322792 -12.997158 -2.324147 1.531553 0.005361 -1.965956 2.378798 -11.667567 -9.031059 70.848288 -66.265356 -46.886770 17.102913 4.437187 -32.037694 -5.079826 -1.719085 -2.900787 2.307895 -8.469080 -7.884807 -42.171068 -55.697497 23.960085 -14.630839 -11.935883 39.313142 7.726045 -40.944861 -8.275501 -11.003295 66.579034 -12.336408 8.302630 25.400784 6.539168 -0.355914 -17.281653 3.618046 -6.711593 -38.635377 -3.193369 22.921247 62.722238 20.012101 -15.159249 8.802264 -1.339488 -0.371717 -0.116609 -0.157213
-132.019189 57.825354 110.209194 -179.938722 -34.090015 -0.775600 1.921958 22.552565 2.803209 0.183900 3.225204 0.362116 0.382880 5.236078 0.611317 1.719652 19.058513 2.471555 -3.259102 12.308469 -1.954103 -5.396288 -12.945954 -2.366607 1.503149 0.031961 -1.986164 2.230755 -11.409994 -8.976895 70.423748 -65.868085 -46.332962 17.880306 2.722813 -32.848554 -5.059503 -1.765687 -2.946150 2.107752 -8.530165 -8.186387 -43.211064 -55.603232 25.308373 -14.650104 -11.997064 39.442181 7.530304 -41.030834 -7.999802 -11.090092 66.568604 -12.556552 8.237036 25.408618 6.513572 -0.297002 -17.271544 3.644758 -7.015473 -38.762418 -2.931116 23.022167 62.828708 19.967372 -15.073581 8.882817 -1.323727 -0.394304 -0.208747 -0.174938
-132.001147 57.807263 110.220166 -179.982556 -34.055382 -0.829098 1.872046 22.486888 2.815676 0.201907 3.219562 0.366533 0.372363 5.222439 0.608029 1.681247 19.040023 2.458242 -3.311651 12.360786 -1.985216 -5.482739 -12.849150 -2.405607 1.470674 0.060902 -2.003768 2.064707 -11.198714 -8.958933 70.898657 -65.555508 -46.481322 18.447788 1.295797 -33.680556 -5.014562 -1.824219 -2.969983 2.054185 -8.494174 -8.342392 -44.320903 -55.601324 26.519882 -13.729137 -11.506100 38.727731 7.469998 -41.111867 -7.823974 -11.139917 66.578614 -12.669237 8.208191 25.441218 6.516350 -0.277326 -17.289367 3.653151 -7.210486 -38.818692 -2.645352 22.927320 62.901627 19.724843 -15.118935 8.867673 -1.358843 -0.314845 -0.199406 -0.140579
-131.982075 57.798494 110.220449 179.917916 -34.073548 -0.810407 1.871466 22.453403 2.800946 0.215099 3.218404 0.369125 0.359156 5.209781 0.604331 1.632260 19.023671 2.441949 -3.369643 12.431685 -2.018738 -5.578300 -12.717890 -2.447418 1.437332 0.084667 -2.013300 1.918889 -11.030796 -8.987194 71.965102 -65.239676 -47.093711 18.604495 0.258491 -34.486297 -4.930549 -1.891686 -2.945973 2.165008 -8.393939 -8.355211 -45.350811 -55.767350 27.395955 -12.359467 -10.764283 37.564532 7.460192 -41.144992 -7.660954 -11.126570 66.603207 -12.750844 8.127024 25.500111 6.500545 -0.241303 -17.335221 3.674032 -7.070978 -38.741687 -2.561733 22.622057 62.893887 19.451550 -15.243568 8.758279 -1.396789 -0.193005 -0.091317 -0.108547
